<?xml version="1.0" encoding="utf-8"?>
<!-- Generator: Adobe Illustrator 19.0.0, SVG Export Plug-In . SVG Version: 6.00 Build 0)  -->
<svg version="1.1" id="layer" xmlns="http://www.w3.org/2000/svg" xmlns:xlink="http://www.w3.org/1999/xlink" x="0px" y="0px"
	 viewBox="-153 -46 652 652" style="enable-background:new -153 -46 652 652;" xml:space="preserve">
<style type="text/css">
	.st0{fill:#D1D3D4;}
	.st1{fill:#BC2025;}
</style>
<path class="st0" d="M399.6,227.9v22.4H378v4.4h21.5v21.2h-21.5l-0.1,6.3h21.6v22.9h-30.1l-13-17.3l-0.1-59.9H399.6z M232.9,266.5
	l1.8-2.4v9l-1.8-2.1V266.5L232.9,266.5z M257.8,305.2v-77.4h-24.7l-17.3,23.4l-8.2-9.4L192.9,260l8.9,10.3l-12.8,17.3l14.9,18.4
	l13.2-17.9l14.6,17H257.8L257.8,305.2z M232.9,271l-1.7-2l1.7-2.5V271L232.9,271z M146.6,265.4v39.8h-22.4v-61.4l-14-16l34.4,0.1
	l11.7,13.1l11.1-14.8l21.4,23.4v86.2l-23.8-26v-43.6l-9.1,10.7L146.6,265.4z M450.4,227.9l23.2,0v103.9l-23.2-24.6v-25.9l-10.8-11.7
	v35.6h-23.2v-59.7l-16.7-17.5l33.8,0l17,18.6V227.9z M74,227.8h23.2v104L74,307.3v-26l-10.8-11.6v35.6H40v-59.7l-16.8-17.6H40v-0.1
	h17l17,18.8V227.8z M-4.3,305.2h28.9l14.1-20.9l-42.6-58.5l-43,58.6l14.7,20.8H-4.3L-4.3,305.2L-4.3,305.2z M-17.4,281.6l13.9-16.8
	l12.2,16.8H-17.4L-17.4,281.6z M-68.5,264h2.5l-2.2-2.9l-0.3,0.3L-68.5,264L-68.5,264z M-66.7,225.3l30.1,38.7l-15.2,20.3l20.3,27.7
	l-15.1,17.4l-28.3-36.8v12.7h-23.2v-77.4h23.2v6.3L-66.7,225.3L-66.7,225.3z M-68.5,261.4L-71,264h2.5V261.4L-68.5,261.4z
	 M262,227.7h23.8v77.4H262V227.7z M-126.5,227.8h23.8v77.4h-23.8V227.8z M329,282.3l-17.5-26.4v26.4H329L329,282.3z M320.3,228.5
	l35.4,53.1L341,305.2l-51.7,0v-77.4h22.2v0.1h8.3L320.3,228.5L320.3,228.5L320.3,228.5z"/>
<path class="st1" d="M-121.7,232.6h14.3v67.8h-14.3L-121.7,232.6L-121.7,232.6L-121.7,232.6z M-68.2,254.9l-11.5,12.6h21.6
	L-68.2,254.9L-68.2,254.9z M-79.7,278.4v22h-13.7v-67.8h13.7v13.7l12.7-13.8l24.3,31.6l-15.2,20.1l20.3,27.4l-8.7,10.2L-79.7,278.4
	L-79.7,278.4L-79.7,278.4z M141.8,252.1v48.3H129V242l-8.3-9.3h21.7l14.1,15.9l11.2-14.9l16.2,17.7v72l-14.3-15.6V253l-13.7,16.4
	L141.8,252.1z M78.8,232.6h13.7v87.3l-13.7-14.5v-25.9l-20.3-22.1v43.1H44.8v-56.8l-10.4-10.9h10.4v-0.1h10.1l23.9,26.5V232.6z
	 M266.9,232.5h14.2v67.7h-14.2V232.5z M394.8,232.7h-33.5l-0.2,53.5l10.6,14.1h22.9V287h-21.3l-0.2-15.9h21.5v-11.6h-21.5l0.1-13.9
	h21.5V232.7z M455.1,232.5h13.7v87.3l-13.7-14.5v-25.9l-20.3-22.1v43.1h-13.7v-56.7l-10.4-11.2l20.5,0.1l23.8,26.5V232.5z
	 M-4.5,256.2l-22.5,30.1h22.5h0.9h21.7L-4,255.6L-4.5,256.2L-4.5,256.2L-4.5,256.2z M-3.6,300.3h-0.9h-25.3l-11.2-16l36.8-49.6
	l0.4-0.5l36.6,50.2L22,300.3H-3.6L-3.6,300.3z M216.7,280.5l-13.1,17.7l-8.6-10.7l12.8-17.3l-8.7-10.2l8.6-10.7l8.3,9.7l19.4-26.3
	h3.9H253v67.8h-19.2L216.7,280.5L216.7,280.5z M239.4,286v-36.4L225,269.2L239.4,286L239.4,286z M322.3,240.2L322.3,240.2l27.7,41.4
	l-11.6,19l-44.3-0.2v-67.8h12.7v0.1h10.5L322.3,240.2L322.3,240.2z M306.7,240.1v46.9c10.4,0,20.8,0,31.3,0
	C327.5,271.4,317.1,255.8,306.7,240.1L306.7,240.1z"/>
</svg>
